<svg width="23" height="25" viewBox="0 0 23 25" fill="none" xmlns="http://www.w3.org/2000/svg">
<path d="M18.3414 14.6728C18.3414 14.963 18.2553 15.2467 18.0941 15.488C17.9329 15.7293 17.7037 15.9173 17.4356 16.0284C17.1675 16.1394 16.8725 16.1685 16.5879 16.1119C16.3032 16.0553 16.0418 15.9155 15.8366 15.7103C15.6314 15.5051 15.4916 15.2437 15.435 14.959C15.3784 14.6744 15.4075 14.3794 15.5185 14.1113C15.6296 13.8432 15.8176 13.614 16.0589 13.4528C16.3002 13.2916 16.5839 13.2055 16.8741 13.2055C17.2633 13.2055 17.6365 13.3601 17.9116 13.6353C18.1868 13.9104 18.3414 14.2836 18.3414 14.6728ZM21.9362 16.7881C21.5576 18.3 20.8553 19.7118 19.878 20.9259C18.9006 22.14 17.6714 23.1275 16.2753 23.8204C14.8791 24.5132 13.3493 24.8948 11.7913 24.9389C10.2333 24.983 8.6843 24.6884 7.25122 24.0756L7.11672 24.0145C5.4302 23.2583 3.96576 22.0823 2.86331 20.5988C1.76086 19.1153 1.05724 17.3739 0.819655 15.5409C0.760314 15.0951 0.731716 14.6457 0.734064 14.1959C0.728646 12.1216 1.32774 10.0906 2.45811 8.35127C1.56532 7.91188 0.847741 7.18296 0.422404 6.28339C-0.00293207 5.38381 -0.110927 4.36667 0.116032 3.39784C0.342991 2.42901 0.891512 1.56566 1.67214 0.948592C2.45276 0.331528 3.41943 -0.00284114 4.41448 1.81872e-05C4.55872 0.000348671 4.70096 0.0338157 4.83021 0.0978366L18.806 6.83509C19.4276 6.7733 20.002 6.47598 20.4114 6.00411C20.8207 5.53225 21.034 4.92163 21.0074 4.29752C20.9808 3.67341 20.7164 3.08313 20.2684 2.6478C19.8204 2.21246 19.2228 1.96508 18.5982 1.95639C18.3387 1.95639 18.0899 1.85333 17.9065 1.66988C17.723 1.48644 17.62 1.23763 17.62 0.978203C17.62 0.718772 17.723 0.469967 17.9065 0.286522C18.0899 0.103077 18.3387 1.81872e-05 18.5982 1.81872e-05C19.7656 1.81872e-05 20.8852 0.463781 21.7107 1.28928C22.5362 2.11479 23 3.23441 23 4.40185C23 5.56929 22.5362 6.68891 21.7107 7.51441C20.8852 8.33992 19.7656 8.80368 18.5982 8.80368C18.4502 8.80192 18.3043 8.76857 18.1702 8.70586L11.2862 5.38003C9.04665 5.43741 6.91292 6.34528 5.31858 7.91917C3.72425 9.49306 2.78893 11.6149 2.70266 13.8536L7.11672 11.4937L11.0295 9.40282C11.179 9.32208 11.347 9.28171 11.5169 9.28568C11.6869 9.28964 11.8528 9.33781 11.9984 9.42544C12.1441 9.51306 12.2644 9.63712 12.3474 9.78538C12.4305 9.93365 12.4736 10.101 12.4723 10.271V22.9262C14.2594 22.7312 15.9435 21.9922 17.2971 20.8092C18.6507 19.6262 19.6084 18.0561 20.041 16.3113C20.1135 16.0703 20.2762 15.8665 20.4951 15.7424C20.714 15.6182 20.9723 15.5832 21.2163 15.6446C21.4604 15.706 21.6714 15.8591 21.8054 16.0721C21.9395 16.2851 21.9864 16.5415 21.9362 16.7881ZM10.5159 11.8972L8.55954 12.9487V22.486C9.19263 22.7073 9.84907 22.855 10.5159 22.9262V11.8972ZM3.71753 6.74949C4.96841 5.44193 6.52852 4.47053 8.25386 3.92498L4.20662 1.96862C3.63889 2.01691 3.10585 2.26193 2.69953 2.66137C2.29321 3.0608 2.03912 3.58958 1.98113 4.1564C1.92315 4.72322 2.0649 5.29249 2.38193 5.76593C2.69895 6.23937 3.17134 6.58724 3.71753 6.74949ZM6.60317 21.4956V13.9881L2.87384 15.9811C3.34848 18.236 4.68713 20.2155 6.60317 21.4956Z" fill="#334155"/>
</svg>
